<svg xmlns="http://www.w3.org/2000/svg" width="154" height="20" viewBox="0 0 154 20" fill="none">
  <path d="M18.8958 0H1.10417C0.494167 0 0 0.494167 0 1.10417V18.8967C0 19.5058 0.494167 20 1.10417 20H10.6833V12.255H8.07667V9.23667H10.6833V7.01083C10.6833 4.4275 12.2608 3.02083 14.5658 3.02083C15.67 3.02083 16.6183 3.10333 16.895 3.14V5.84L15.2967 5.84083C14.0433 5.84083 13.8008 6.43667 13.8008 7.31V9.2375H16.79L16.4008 12.2558H13.8008V20H18.8975C19.5058 20 20 19.5058 20 18.8958V1.10417C20 0.494167 19.5058 0 18.8958 0Z" fill="url(#paint0_linear_0_4005)"/>
  <path fill-rule="evenodd" clip-rule="evenodd" d="M143.32 0C140.604 0 140.264 0.0116667 139.198 0.06C135.566 0.226667 133.548 2.24167 133.381 5.87667C133.332 6.94417 133.32 7.28417 133.32 10C133.32 12.7158 133.332 13.0567 133.38 14.1233C133.547 17.755 135.562 19.7733 139.197 19.94C140.264 19.9883 140.604 20 143.32 20C146.036 20 146.377 19.9883 147.443 19.94C151.072 19.7733 153.095 17.7583 153.259 14.1233C153.308 13.0567 153.32 12.7158 153.32 10C153.32 7.28417 153.308 6.94417 153.26 5.8775C153.097 2.24917 151.079 0.2275 147.444 0.0608333C146.377 0.0116667 146.036 0 143.32 0ZM143.32 1.8025C145.99 1.8025 146.307 1.8125 147.362 1.86083C150.072 1.98417 151.338 3.27 151.461 5.96C151.509 7.01417 151.518 7.33083 151.518 10.0008C151.518 12.6717 151.508 12.9875 151.461 14.0417C151.337 16.7292 150.074 18.0175 147.362 18.1408C146.307 18.1892 145.992 18.1992 143.32 18.1992C140.65 18.1992 140.333 18.1892 139.279 18.1408C136.563 18.0167 135.303 16.725 135.18 14.0408C135.132 12.9867 135.122 12.6708 135.122 10C135.122 7.33 135.133 7.01417 135.18 5.95917C135.304 3.27 136.567 1.98333 139.279 1.86C140.334 1.8125 140.65 1.8025 143.32 1.8025ZM138.185 10C138.185 7.16417 140.484 4.865 143.32 4.865C146.156 4.865 148.455 7.16417 148.455 10C148.455 12.8367 146.156 15.1358 143.32 15.1358C140.484 15.1358 138.185 12.8358 138.185 10ZM143.32 13.3333C141.479 13.3333 139.987 11.8417 139.987 10C139.987 8.15917 141.479 6.66667 143.32 6.66667C145.161 6.66667 146.653 8.15917 146.653 10C146.653 11.8417 145.161 13.3333 143.32 13.3333ZM147.458 4.6625C147.458 4 147.995 3.4625 148.658 3.4625C149.321 3.4625 149.858 4 149.858 4.6625C149.858 5.325 149.321 5.8625 148.658 5.8625C147.995 5.8625 147.458 5.325 147.458 4.6625Z" fill="url(#paint1_linear_0_4005)"/>
  <path d="M109.99 0C104.467 0 99.99 4.47667 99.99 10C99.99 14.2367 102.626 17.855 106.346 19.3117C106.258 18.5208 106.179 17.3075 106.381 16.4442C106.562 15.6633 107.553 11.4733 107.553 11.4733C107.553 11.4733 107.254 10.8742 107.254 9.98833C107.254 8.59833 108.06 7.56 109.063 7.56C109.916 7.56 110.328 8.20083 110.328 8.96833C110.328 9.82583 109.782 11.1083 109.5 12.2975C109.264 13.2925 109.999 14.105 110.981 14.105C112.758 14.105 114.124 12.2308 114.124 9.52583C114.124 7.13167 112.404 5.4575 109.947 5.4575C107.102 5.4575 105.432 7.59167 105.432 9.79667C105.432 10.6558 105.763 11.5783 106.177 12.0783C106.258 12.1775 106.27 12.265 106.246 12.3658L105.968 13.4992C105.924 13.6825 105.823 13.7217 105.633 13.6333C104.384 13.0517 103.603 11.2258 103.603 9.75917C103.603 6.605 105.895 3.7075 110.211 3.7075C113.68 3.7075 116.376 6.18 116.376 9.48333C116.376 12.93 114.203 15.7033 111.187 15.7033C110.173 15.7033 109.221 15.1775 108.895 14.555L108.272 16.9325C108.046 17.8017 107.437 18.8908 107.028 19.5542C107.965 19.8433 108.959 20 109.99 20C115.512 20 119.99 15.5225 119.99 10C119.99 4.47667 115.512 0 109.99 0Z" fill="url(#paint2_linear_0_4005)"/>
  <path d="M86.6599 3.79746C85.9241 4.12412 85.1332 4.34412 84.3032 4.44329C85.1507 3.93579 85.8016 3.13162 86.1074 2.17329C85.3149 2.64329 84.4366 2.98496 83.5016 3.16912C82.7541 2.37162 81.6866 1.87329 80.5066 1.87329C77.8574 1.87329 75.9107 4.34496 76.5091 6.91079C73.0999 6.73996 70.0766 5.10662 68.0524 2.62412C66.9774 4.46829 67.4949 6.88079 69.3216 8.10246C68.6499 8.08079 68.0166 7.89662 67.4641 7.58912C67.4191 9.48996 68.7816 11.2683 70.7549 11.6641C70.1774 11.8208 69.5449 11.8575 68.9016 11.7341C69.4232 13.3641 70.9382 14.55 72.7349 14.5833C71.0099 15.9358 68.8366 16.54 66.6599 16.2833C68.4757 17.4475 70.6332 18.1266 72.9499 18.1266C80.5682 18.1266 84.8724 11.6925 84.6124 5.92162C85.4141 5.34246 86.1099 4.61996 86.6599 3.79746Z" fill="url(#paint3_linear_0_4005)"/>
  <path fill-rule="evenodd" clip-rule="evenodd" d="M43.3301 0C37.8076 0 33.3301 4.4775 33.3301 10C33.3301 15.5225 37.8076 20 43.3301 20C48.8526 20 53.3301 15.5225 53.3301 10C53.3301 4.4775 48.8526 0 43.3301 0ZM47.0309 14.0767C45.2792 14.1967 41.3776 14.1967 39.6284 14.0767C37.7317 13.9467 37.5109 13.0183 37.4967 10C37.5109 6.97583 37.7342 6.05333 39.6284 5.92333C41.3776 5.80333 45.2801 5.80333 47.0309 5.92333C48.9284 6.05333 49.1484 6.98167 49.1634 10C49.1484 13.0242 48.9259 13.9467 47.0309 14.0767ZM45.7609 9.99667L41.6634 8.04833V11.9517L45.7609 9.99667Z" fill="url(#paint4_linear_0_4005)"/>
  <defs>
    <linearGradient id="paint0_linear_0_4005" x1="10" y1="-10" x2="-10" y2="10" gradientUnits="userSpaceOnUse">
      <stop stop-color="#63AFDB"/>
      <stop offset="1" stop-color="#6028F1"/>
    </linearGradient>

  </defs>
</svg>